<svg xmlns="http://www.w3.org/2000/svg" viewBox="0 0 1440 320"><path fill="#50aaa3" fill-opacity="0.85" d="M0,288L30,293.3C60,299,120,309,180,309.3C240,309,300,299,360,288C420,277,480,267,540,261.3C600,256,660,256,720,218.7C780,181,840,107,900,80C960,53,1020,75,1080,74.7C1140,75,1200,53,1260,85.3C1320,117,1380,203,1410,245.3L1440,288L1440,0L1410,0C1380,0,1320,0,1260,0C1200,0,1140,0,1080,0C1020,0,960,0,900,0C840,0,780,0,720,0C660,0,600,0,540,0C480,0,420,0,360,0C300,0,240,0,180,0C120,0,60,0,30,0L0,0Z"></path></svg>