<svg xmlns="http://www.w3.org/2000/svg" viewBox="0 0 1440 320"><path fill="#50aaa3" fill-opacity="0.85" d="M0,160L34.3,154.7C68.6,149,137,139,206,154.7C274.3,171,343,213,411,218.7C480,224,549,192,617,181.3C685.7,171,754,181,823,165.3C891.4,149,960,107,1029,106.7C1097.1,107,1166,149,1234,170.7C1302.9,192,1371,192,1406,192L1440,192L1440,320L1405.7,320C1371.4,320,1303,320,1234,320C1165.7,320,1097,320,1029,320C960,320,891,320,823,320C754.3,320,686,320,617,320C548.6,320,480,320,411,320C342.9,320,274,320,206,320C137.1,320,69,320,34,320L0,320Z"></path></svg>